HIERARCHY
ROOT hip
{
  OFFSET 0 0 0
  CHANNELS 6 Xposition Yposition Zposition Zrotation Yrotation Xrotation
  JOINT abdomen
  {
    OFFSET 0 20.6881 -0.73152
    CHANNELS 3 Zrotation Xrotation Yrotation
    JOINT chest
    {
      OFFSET 0 11.7043 -0.48768
      CHANNELS 3 Zrotation Xrotation Yrotation
      JOINT neck
      {
        OFFSET 0 22.1894 -2.19456
        CHANNELS 3 Zrotation Xrotation Yrotation
        JOINT head
        {
          OFFSET -0.24384 7.07133 1.2192
          CHANNELS 3 Zrotation Xrotation Yrotation
          JOINT leftEye
          {
            OFFSET 4.14528 8.04674 8.04672
            CHANNELS 3 Zrotation Xrotation Yrotation
            End Site
            {
              OFFSET 1 0 0
            }
          }
          JOINT rightEye
          {
            OFFSET -3.6576 8.04674 8.04672
            CHANNELS 3 Zrotation Xrotation Yrotation
            End Site
            {
              OFFSET 1 0 0
            }
          }
        }
      }
      JOINT rCollar
      {
        OFFSET -2.68224 19.2634 -4.8768
        CHANNELS 3 Zrotation Xrotation Yrotation
        JOINT rShldr
        {
          OFFSET -8.77824 -1.95073 1.46304
          CHANNELS 3 Zrotation Xrotation Yrotation
          JOINT rForeArm
          {
            OFFSET -28.1742 -1.7115 0.48768
            CHANNELS 3 Zrotation Xrotation Yrotation
            JOINT rHand
            {
              OFFSET -22.5879 0.773209 7.07136
              CHANNELS 3 Zrotation Xrotation Yrotation
              JOINT rThumb1
              {
                OFFSET -1.2192 -0.487915 3.41376
                CHANNELS 3 Zrotation Xrotation Yrotation
                JOINT rThumb2
                {
                  OFFSET -3.37035 -0.52449 3.41376
                  CHANNELS 3 Zrotation Xrotation Yrotation
                  End Site
                  {
                    OFFSET -1.78271 -1.18214 1.43049
                  }
                }
              }
              JOINT rIndex1
              {
                OFFSET -7.75947 0.938293 5.60832
                CHANNELS 3 Zrotation Xrotation Yrotation
                JOINT rIndex2
                {
                  OFFSET -2.54057 -0.884171 1.56538
                  CHANNELS 3 Zrotation Xrotation Yrotation
                  End Site
                  {
                    OFFSET -1.62519 -0.234802 1.16502
                  }
                }
              }
              JOINT rMid1
              {
                OFFSET -8.24714 1.18213 3.41376
                CHANNELS 3 Zrotation Xrotation Yrotation
                JOINT rMid2
                {
                  OFFSET -3.10165 -0.590103 1.0647
                  CHANNELS 3 Zrotation Xrotation Yrotation
                  End Site
                  {
                    OFFSET -2.48547 -0.328903 0.83742
                  }
                }
              }
              JOINT rRing1
              {
                OFFSET -8.82822 0.546677 1.51678
                CHANNELS 3 Zrotation Xrotation Yrotation
                JOINT rRing2
                {
                  OFFSET -2.60934 -0.819778 -0.0198488
                  CHANNELS 3 Zrotation Xrotation Yrotation
                  End Site
                  {
                    OFFSET -2.33842 -0.294052 0.168128
                  }
                }
              }
              JOINT rPinky1
              {
                OFFSET -8.27202 -0.0477905 -0.4584
                CHANNELS 3 Zrotation Xrotation Yrotation
                JOINT rPinky2
                {
                  OFFSET -1.82734 -0.647385 -0.700984
                  CHANNELS 3 Zrotation Xrotation Yrotation
                  End Site
                  {
                    OFFSET -1.69225 -0.51767 -0.607171
                  }
                }
              }
            }
          }
        }
      }
      JOINT lCollar
      {
        OFFSET 2.68224 19.2634 -4.8768
        CHANNELS 3 Zrotation Xrotation Yrotation
        JOINT lShldr
        {
          OFFSET 8.77824 -1.95073 1.46304
          CHANNELS 3 Zrotation Xrotation Yrotation
          JOINT lForeArm
          {
            OFFSET 28.1742 -1.7115 0.48768
            CHANNELS 3 Zrotation Xrotation Yrotation
            JOINT lHand
            {
              OFFSET 22.5879 0.773209 7.07136
              CHANNELS 3 Zrotation Xrotation Yrotation
              JOINT lThumb1
              {
                OFFSET 1.2192 -0.487915 3.41376
                CHANNELS 3 Zrotation Xrotation Yrotation
                JOINT lThumb2
                {
                  OFFSET 3.37035 -0.52449 3.41376
                  CHANNELS 3 Zrotation Xrotation Yrotation
                  End Site
                  {
                    OFFSET 1.78271 -1.18214 1.43049
                  }
                }
              }
              JOINT lIndex1
              {
                OFFSET 7.75947 0.938293 5.60832
                CHANNELS 3 Zrotation Xrotation Yrotation
                JOINT lIndex2
                {
                  OFFSET 2.54057 -0.884171 1.56538
                  CHANNELS 3 Zrotation Xrotation Yrotation
                  End Site
                  {
                    OFFSET 1.62519 -0.234802 1.16502
                  }
                }
              }
              JOINT lMid1
              {
                OFFSET 8.24714 1.18213 3.41376
                CHANNELS 3 Zrotation Xrotation Yrotation
                JOINT lMid2
                {
                  OFFSET 3.10165 -0.590103 1.0647
                  CHANNELS 3 Zrotation Xrotation Yrotation
                  End Site
                  {
                    OFFSET 2.48547 -0.328903 0.83742
                  }
                }
              }
              JOINT lRing1
              {
                OFFSET 8.82822 0.546677 1.51678
                CHANNELS 3 Zrotation Xrotation Yrotation
                JOINT lRing2
                {
                  OFFSET 2.60934 -0.819778 -0.0198488
                  CHANNELS 3 Zrotation Xrotation Yrotation
                  End Site
                  {
                    OFFSET 2.33842 -0.294052 0.168128
                  }
                }
              }
              JOINT lPinky1
              {
                OFFSET 8.27202 -0.0477905 -0.4584
                CHANNELS 3 Zrotation Xrotation Yrotation
                JOINT lPinky2
                {
                  OFFSET 1.82734 -0.647385 -0.700984
                  CHANNELS 3 Zrotation Xrotation Yrotation
                  End Site
                  {
                    OFFSET 1.69225 -0.51767 -0.607171
                  }
                }
              }
            }
          }
        }
      }
    }
  }
  JOINT rButtock
  {
    OFFSET -8.77824 4.35084 1.2192
    CHANNELS 3 Zrotation Xrotation Yrotation
    JOINT rThigh
    {
      OFFSET 0 -1.70687 -2.19456
      CHANNELS 3 Zrotation Xrotation Yrotation
      JOINT rShin
      {
        OFFSET 0 -36.8199 0.73152
        CHANNELS 3 Zrotation Xrotation Yrotation
        JOINT rFoot
        {
          OFFSET 0.73152 -45.1104 -5.12064
          CHANNELS 3 Zrotation Xrotation Yrotation
          End Site
          {
            OFFSET -1.1221 -3.69964 12.103
          }
        }
      }
    }
  }
  JOINT lButtock
  {
    OFFSET 8.77824 4.35084 1.2192
    CHANNELS 3 Zrotation Xrotation Yrotation
    JOINT lThigh
    {
      OFFSET 0 -1.70687 -2.19456
      CHANNELS 3 Zrotation Xrotation Yrotation
      JOINT lShin
      {
        OFFSET 0 -36.8199 0.73152
        CHANNELS 3 Zrotation Xrotation Yrotation
        JOINT lFoot
        {
          OFFSET -0.73152 -45.1104 -5.12064
          CHANNELS 3 Zrotation Xrotation Yrotation
          End Site
          {
            OFFSET 1.1221 -3.69964 12.103
          }
        }
      }
    }
  }
}
MOTION
Frames:	5
Frame Time:	0.00833333
52.4235 85.5269 141.28 0.0 0.0 0.0 2.34099 -0.00222388 0.0637208 0.646591 0.00595034 0.111937 -5.53185e-14 7.95139e-16 7.20595e-16 -1.68041e-13 9.54166e-15 2.13228e-15 -0.0 0.0 0.0 -0.0 0.0 0.0 -2.79308e-14 1.13369e-16 3.97569e-16 -5.87847e-13 2.02512e-15 6.95746e-15 -1.01477e-11 3.10362e-12 2.41722e-13 -1.16016e-10 -2.61583e-12 1.34219e-12 -2.73685e-10 1.05988e-12 3.46362e-12 -4.72645e-10 1.83836e-12 5.95877e-12 -2.73679e-10 1.05952e-12 3.45408e-12 7.73091 5.47488 0.417314 -2.73685e-10 1.05972e-12 3.45726e-12 2.90554 0.965183 0.102902 -2.73678e-10 1.06032e-12 3.4509e-12 10.2786 0.731801 0.0259123 -2.73691e-10 1.06151e-12 3.46044e-12 2.22167 -0.733487 -0.20892 -2.80289e-14 1.09875e-16 1.98785e-16 -5.91295e-13 2.23633e-15 4.96962e-15 -1.01343e-11 -2.95354e-12 2.3218e-13 -1.16032e-10 3.45142e-12 1.33901e-12 -2.73683e-10 1.07978e-12 3.44772e-12 -4.72634e-10 1.86062e-12 5.98024e-12 -2.73687e-10 1.07861e-12 3.45726e-12 -7.73091 5.47488 -0.417314 -2.73685e-10 1.0801e-12 3.45408e-12 -2.90554 0.965183 -0.102902 -2.73686e-10 1.0799e-12 3.45408e-12 -10.2786 0.731801 -0.0259123 -2.73676e-10 1.08377e-12 3.45408e-12 -2.22167 -0.733487 0.20892 -2.03217e-16 0.0 -3.88251e-19 2.21583 -8.02969 -0.231382 0.00606954 8.97361 0.152052 -0.478043 -0.951424 0.0349019 2.03217e-16 0.0 3.88251e-19 1.3524 -1.92788 -0.00536357 0.0084641 -2.07867 0.0694382 0.42351 3.99898 -0.127238
54.0923 85.0407 129.253 -179.302 7.1158 177.559 2.92569 0.952325 0.522742 0.46812 -2.21623 0.282581 -1.4977 2.57005 -0.299548 2.00752 -4.59515 -0.0417253 -0.0 0.0 0.0 -0.0 0.0 0.0 -9.81932e-15 -5.40938e-15 -3.00778e-14 22.2621 13.0473 -1.42563 -5.24483 -2.63037 7.90559 0.0442841 4.6709 0.648598 -3.10318e-10 2.05497e-10 -9.31686e-11 -5.37166e-10 3.53585e-10 -1.59258e-10 -3.10313e-10 2.05494e-10 -9.31765e-11 7.73091 5.47488 0.417314 -3.10318e-10 2.05494e-10 -9.31732e-11 2.90554 0.965183 0.102902 -3.10311e-10 2.05494e-10 -9.31775e-11 10.2786 0.731801 0.0259123 -3.10326e-10 2.05496e-10 -9.31682e-11 2.22167 -0.733487 -0.20892 -9.93321e-15 -5.4115e-15 -3.02949e-14 -22.3657 10.7057 2.13066 5.13153 -2.54742 -7.76684 -0.0183312 3.00403 -0.420095 -1.82292e-10 -1.3577e-10 -1.37403e-10 -3.15945e-10 -2.35943e-10 -2.37661e-10 -1.8229e-10 -1.35768e-10 -1.37388e-10 -7.73091 5.47488 -0.417314 -1.82294e-10 -1.35773e-10 -1.37398e-10 -2.90554 0.965183 -0.102902 -1.82294e-10 -1.35774e-10 -1.37398e-10 -10.2786 0.731801 -0.0259123 -1.8228e-10 -1.35764e-10 -1.37395e-10 -2.22167 -0.733487 0.20892 -2.03217e-16 0.0 -3.88251e-19 4.30166 -7.7002 4.39315 0.0247874 12.5069 0.207983 -1.19429 -3.50479 -7.48613 2.03217e-16 0.0 3.88251e-19 0.157951 -2.83371 -5.31862 -0.00862932 3.52086 -0.101434 1.11459 -0.973906 5.94628
54.0153 85.0704 129.458 -179.318 6.6073 178.279 3.52601 1.96395 1.0009 0.296219 -4.57376 0.462058 -3.05329 5.28794 -0.618121 4.12471 -9.45231 -0.0861452 -0.0 0.0 0.0 -0.0 0.0 0.0 8.91602e-15 -1.08842e-14 -6.58536e-14 46.5804 26.804 -3.19997 -10.007 -5.2434 16.3145 -0.0253905 9.61039 1.34926 -3.36718e-10 4.01551e-10 -1.92065e-10 -5.83988e-10 6.9092e-10 -3.28468e-10 -3.36713e-10 4.01546e-10 -1.92071e-10 7.73091 5.47488 0.417314 -3.36717e-10 4.01545e-10 -1.92067e-10 2.90554 0.965183 0.102902 -3.3671e-10 4.01545e-10 -1.9207e-10 10.2786 0.731801 0.0259123 -3.36726e-10 4.01548e-10 -1.92061e-10 2.22167 -0.733487 -0.20892 8.78261e-15 -1.08849e-14 -6.60928e-14 -46.9337 21.9695 4.64395 9.81295 -5.08473 -16.0269 0.0104461 6.18017 -0.86819 -9.53481e-11 -2.93433e-10 -2.87941e-10 -1.67075e-10 -5.09722e-10 -4.97935e-10 -9.53409e-11 -2.93427e-10 -2.87919e-10 -7.73091 5.47488 -0.417314 -9.53505e-11 -2.93439e-10 -2.87936e-10 -2.90554 0.965183 -0.102902 -9.53504e-11 -2.93441e-10 -2.87937e-10 -10.2786 0.731801 -0.0259123 -9.53317e-11 -2.93425e-10 -2.8793e-10 -2.22167 -0.733487 0.20892 -2.03217e-16 0.0 -3.88251e-19 6.45054 -7.30648 9.27248 0.0367508 16.2408 0.269793 -2.67653 -6.04197 -15.5038 2.03217e-16 0.0 3.88251e-19 -1.28114 -3.75693 -10.9414 0.0100012 9.44198 -0.285356 2.98369 -6.09428 12.4215
54.0341 85.0664 129.398 -179.303 6.7315 178.131 4.04917 2.86063 1.44237 0.151149 -6.66026 0.627469 -4.41184 7.70929 -0.905928 6.00199 -13.7854 -0.128474 -0.0 0.0 0.0 -0.0 0.0 0.0 2.64037e-14 -1.64549e-14 -9.10286e-14 69.2062 39.0303 -5.36663 -13.6113 -7.29148 23.8968 -0.192605 14.0054 1.99877 -3.83586e-10 6.1437e-10 -2.86433e-10 -6.66209e-10 1.05708e-09 -4.8969e-10 -3.83581e-10 6.14364e-10 -2.86438e-10 7.73091 5.47488 0.417314 -3.83583e-10 6.14362e-10 -2.86434e-10 2.90554 0.965183 0.102902 -3.83577e-10 6.14362e-10 -2.86434e-10 10.2786 0.731801 0.0259123 -3.83594e-10 6.14365e-10 -2.86426e-10 2.22167 -0.733487 -0.20892 2.62581e-14 -1.64543e-14 -9.12822e-14 -69.8409 31.9231 7.40564 13.3729 -7.08176 -23.467 0.0785547 9.01015 -1.27428 4.90854e-13 -4.0947e-10 -4.19106e-10 -2.5671e-12 -7.11551e-10 -7.24942e-10 5.02556e-13 -4.09461e-10 -4.19078e-10 -7.73091 5.47488 -0.417314 4.88356e-13 -4.09479e-10 -4.19101e-10 -2.90554 0.965183 -0.102902 4.88651e-13 -4.09481e-10 -4.19102e-10 -10.2786 0.731801 -0.0259123 5.11327e-13 -4.09461e-10 -4.19092e-10 -2.22167 -0.733487 0.20892 -2.03217e-16 0.0 -3.88251e-19 8.30912 -6.91042 13.6194 0.0401261 19.5733 0.327697 -4.59487 -8.03556 -22.7213 2.03217e-16 0.0 3.88251e-19 -2.72758 -4.50197 -15.9762 0.0597879 14.7195 -0.45753 5.64353 -10.3888 18.4023
54.0125 85.0535 129.511 -179.264 6.4435 178.197 4.41089 3.47063 1.79064 0.0453262 -8.06946 0.754431 -5.3354 9.39007 -1.10987 7.29369 -16.8084 -0.16255 -0.0 0.0 0.0 -0.0 0.0 0.0 4.07723e-14 -2.2265e-14 -8.97016e-14 85.8062 47.5308 -7.54451 -15.7949 -8.49795 29.2407 -0.370177 17.0462 2.46973 -4.81622e-10 8.69103e-10 -3.69482e-10 -8.36925e-10 1.4953e-09 -6.30943e-10 -4.81617e-10 8.69095e-10 -3.69485e-10 7.73091 5.47488 0.417314 -4.81619e-10 8.69093e-10 -3.69482e-10 2.90554 0.965183 0.102902 -4.81613e-10 8.69093e-10 -3.6948e-10 10.2786 0.731801 0.0259123 -4.81631e-10 8.69096e-10 -3.69472e-10 2.22167 -0.733487 -0.20892 4.06327e-14 -2.22635e-14 -8.99501e-14 -86.5619 38.782 9.84634 15.5354 -8.2627 -28.6979 0.150091 10.9766 -1.562 1.18568e-10 -4.21443e-10 -5.01837e-10 2.01035e-10 -7.33503e-10 -8.68777e-10 1.18581e-10 -4.21432e-10 -5.01809e-10 -7.73091 5.47488 -0.417314 1.18565e-10 -4.21453e-10 -5.01834e-10 -2.90554 0.965183 -0.102902 1.18566e-10 -4.21455e-10 -5.01835e-10 -10.2786 0.731801 -0.0259123 1.1859e-10 -4.21433e-10 -5.01825e-10 -2.22167 -0.733487 0.20892 -2.03217e-16 0.0 -3.88251e-19 9.55793 -6.59521 16.6516 0.0380752 21.902 0.369553 -6.22869 -9.21102 -27.7618 2.03217e-16 0.0 3.88251e-19 -3.83814 -4.92768 -19.5148 0.114287 18.3884 -0.585372 8.07663 -13.1514 22.7979
